<?xml version="1.0" standalone="no"?>
<!DOCTYPE svg PUBLIC "-//W3C//DTD SVG 20010904//EN"
 "http://www.w3.org/TR/2001/REC-SVG-20010904/DTD/svg10.dtd">
<svg version="1.0" xmlns="http://www.w3.org/2000/svg"
 width="300.000000pt" height="77.000000pt" viewBox="0 0 300.000000 77.000000"
 preserveAspectRatio="xMidYMid meet">
<metadata>
Created by potrace 1.10, written by Peter Selinger 2001-2011
</metadata>
<g transform="translate(0.000000,77.000000) scale(0.100000,-0.100000)"
fill="#000000" stroke="none">
<path d="M135 743 c-47 -24 -86 -64 -106 -108 -17 -36 -19 -69 -19 -321 0
-205 3 -283 12 -292 17 -17 659 -17 676 0 15 15 16 54 2 63 -6 4 -140 6 -298
7 -159 0 -294 3 -301 7 -8 5 -11 44 -9 137 l3 129 302 3 c290 2 303 3 313 22
13 25 -3 60 -28 60 -9 0 -145 1 -302 3 l-285 2 -3 60 c-3 73 19 120 69 147 30
16 61 18 281 18 241 0 247 0 262 22 11 15 12 26 5 40 -9 17 -27 18 -277 18
-223 -1 -272 -3 -297 -17z m514 -7 c-4 -4 -101 -17 -129 -18 -98 -3 -290 6
-270 12 24 8 407 14 399 6z m-535 -316 c6 0 -5 -16 -24 -35 -47 -49 -60 -46
-60 14 0 78 6 85 43 51 18 -17 36 -30 41 -30z m-71 -217 c1 -28 -1 -49 -5 -47
-5 3 -8 28 -8 56 0 65 9 58 13 -9z m62 -139 l26 -21 -33 -1 c-47 -2 -59 9 -64
59 l-4 44 25 -30 c13 -16 36 -39 50 -51z m233 -21 c-38 -2 -98 -2 -135 0 -38
2 -7 3 67 3 74 0 105 -1 68 -3z"/>
<path d="M1312 748 c-7 -7 -12 -19 -12 -28 0 -37 18 -40 257 -40 257 0 279 -4
308 -60 31 -60 10 -126 -50 -154 -30 -14 -68 -17 -260 -15 -233 1 -255 -2
-255 -40 0 -39 16 -41 272 -41 267 0 299 -5 332 -51 11 -16 16 -45 16 -90 0
-61 -3 -70 -30 -97 -16 -16 -44 -32 -62 -36 -18 -3 -140 -5 -271 -4 -250 1
-256 0 -257 -43 0 -36 18 -39 280 -39 140 0 271 5 291 10 140 39 188 267 78
372 l-40 38 22 29 c24 32 35 102 25 156 -8 43 -68 113 -113 132 -44 18 -513
19 -531 1z m473 -18 c3 -5 -67 -9 -156 -9 -88 -1 -164 -2 -167 -2 -31 -5 -92
3 -92 11 0 13 407 13 415 0z m106 -274 c-7 -16 -5 -32 5 -51 19 -37 18 -38
-16 -20 -16 8 -37 15 -48 15 -36 0 -31 13 16 46 26 19 48 34 49 34 1 0 -2 -11
-6 -24z"/>
<path d="M2117 753 c-4 -3 -7 -170 -7 -369 l0 -364 27 -6 c51 -13 53 -3 53
376 0 256 -3 349 -12 358 -13 13 -50 16 -61 5z"/>
<path d="M2292 744 c-14 -24 -3 -53 22 -59 11 -3 80 -6 151 -8 l130 -2 -3
-314 c-2 -282 -1 -316 14 -333 20 -21 47 -23 63 -5 7 9 12 118 13 333 l3 319
139 3 c85 2 145 7 153 14 8 6 13 23 11 37 l-3 26 -342 3 c-309 2 -343 1 -351
-14z m603 -15 c-4 -5 -49 -8 -101 -7 l-95 1 -33 -36 -33 -36 -12 22 c-20 38
-44 46 -160 48 -61 2 -111 7 -111 11 0 4 124 7 275 7 174 0 273 -3 270 -10z"/>
<path d="M822 438 c-7 -7 -12 -20 -12 -29 0 -36 23 -40 206 -37 l179 3 0 35 0
35 -180 3 c-132 2 -184 -1 -193 -10z m348 -28 c0 -6 -56 -10 -160 -10 -90 0
-160 4 -160 9 0 5 71 10 160 10 104 1 160 -2 160 -9z"/>
</g>
</svg>
