<svg version="1.1" xmlns="http://www.w3.org/2000/svg" xmlns:xlink="http://www.w3.org/1999/xlink" viewBox="0 0 226 226"><g fill="none" fill-rule="nonzero" stroke="none" stroke-width="1" stroke-linecap="butt" stroke-linejoin="miter" stroke-miterlimit="10" stroke-dasharray="" stroke-dashoffset="0" font-family="none" font-weight="none" font-size="none" text-anchor="none" style="mix-blend-mode: normal"><path d="M0,226v-226h226v226z" fill="none"></path><g fill="#4648bf"><path d="M122.04,18.08c-17.42159,0 -31.64,14.21841 -31.64,31.64c0,3.13785 0.49423,6.16556 1.3507,9.04h-69.1507c-7.43526,0 -13.56,6.12474 -13.56,13.56v81.36c0,7.43526 6.12474,13.56 13.56,13.56h49.94953c2.29503,25.29562 23.60914,45.2 49.49047,45.2c23.13913,0 41.76911,-16.23095 47.28344,-37.67844c5.34489,3.51104 11.40599,6.03844 18.25656,6.03844c18.66936,0 33.9,-15.23064 33.9,-33.9v-51.98c-0.00025,-2.49622 -2.02378,-4.51975 -4.52,-4.52h-49.72h-49.72v-9.3843c1.4809,0.21289 2.98485,0.3443 4.52,0.3443c17.42159,0 31.64,-14.21841 31.64,-31.64c0,-17.42159 -14.21841,-31.64 -31.64,-31.64zM122.04,27.12c12.53697,0 22.6,10.06303 22.6,22.6c0,12.53697 -10.06303,22.6 -22.6,22.6c-1.57596,0 -3.09413,-0.2003 -4.57297,-0.5032c-0.27442,-7.20141 -6.24385,-13.0568 -13.50703,-13.0568h-2.61312c-1.21324,-2.76514 -1.90687,-5.80415 -1.90687,-9.04c0,-12.53697 10.06303,-22.6 22.6,-22.6zM189.84,36.16c-7.15667,0 -13.09945,2.8465 -16.94117,7.16844c-3.84172,4.32194 -5.65883,9.90712 -5.65883,15.43156c0,5.52444 1.8171,11.10962 5.65883,15.43156c3.84172,4.32194 9.78451,7.16844 16.94117,7.16844c7.15667,0 13.09945,-2.8465 16.94117,-7.16844c3.84172,-4.32194 5.65883,-9.90712 5.65883,-15.43156c0,-5.52444 -1.8171,-11.10962 -5.65883,-15.43156c-3.84172,-4.32194 -9.78451,-7.16844 -16.94117,-7.16844zM189.84,45.2c4.89667,0 7.99389,1.6735 10.17883,4.13156c2.18494,2.45807 3.38117,5.91288 3.38117,9.42844c0,3.51556 -1.19623,6.97038 -3.38117,9.42844c-2.18494,2.45805 -5.28216,4.13156 -10.17883,4.13156c-4.89667,0 -7.99389,-1.6735 -10.17883,-4.13156c-2.18494,-2.45807 -3.38117,-5.91288 -3.38117,-9.42844c0,-3.51556 1.19623,-6.97038 3.38117,-9.42844c2.18494,-2.45805 5.28216,-4.13156 10.17883,-4.13156zM22.6,67.8h75.74531h5.61469c2.55394,0 4.52,1.96606 4.52,4.52v1.65086c-0.2364,0.81901 -0.2364,1.68818 0,2.50719v17.68273c-0.08068,0.48812 -0.08068,0.98618 0,1.4743v58.04492c0,2.55394 -1.96606,4.52 -4.52,4.52h-26.36078c-0.48812,-0.08068 -0.98618,-0.08068 -1.4743,0h-53.52492c-2.55394,0 -4.52,-1.96606 -4.52,-4.52v-81.36c0,-2.55394 1.96606,-4.52 4.52,-4.52zM40.68,85.88v9.04h18.08v45.2h9.04v-45.2h18.08v-9.04zM117.52,99.44h45.2v63.28c0,22.52132 -18.15868,40.68 -40.68,40.68c-20.99082,0 -38.17421,-15.78122 -40.41516,-36.16h22.33516c7.43526,0 13.56,-6.12474 13.56,-13.56zM171.76,99.44h40.68v47.46c0,13.78424 -11.07576,24.86 -24.86,24.86c-6.34116,0 -11.97169,-2.48157 -16.35852,-6.36508c0.05266,-0.9349 0.53852,-1.72713 0.53852,-2.67492z"></path></g></g></svg>